<svg width="21" height="15" viewBox="0 0 21 15" fill="none" xmlns="http://www.w3.org/2000/svg">
<path d="M19.7969 2.54597L7.79687 14.546C7.69236 14.6509 7.56816 14.7341 7.43142 14.7909C7.29467 14.8476 7.14806 14.8769 7 14.8769C6.85193 14.8769 6.70532 14.8476 6.56858 14.7909C6.43183 14.7341 6.30764 14.6509 6.20312 14.546L0.953123 9.29598C0.848476 9.19133 0.765466 9.06709 0.708831 8.93037C0.652196 8.79364 0.623047 8.64709 0.623047 8.4991C0.623047 8.35111 0.652196 8.20456 0.708831 8.06783C0.765466 7.93111 0.848476 7.80687 0.953123 7.70223C1.05777 7.59758 1.182 7.51457 1.31873 7.45793C1.45546 7.4013 1.60201 7.37215 1.75 7.37215C1.89799 7.37215 2.04454 7.4013 2.18126 7.45793C2.31799 7.51457 2.44223 7.59758 2.54687 7.70223L7.00094 12.1563L18.205 0.9541C18.4163 0.742755 18.703 0.624023 19.0019 0.624023C19.3008 0.624023 19.5874 0.742755 19.7987 0.9541C20.0101 1.16544 20.1288 1.45209 20.1288 1.75098C20.1288 2.04986 20.0101 2.33651 19.7987 2.54785L19.7969 2.54597Z" fill="#A3DB5E"/>
</svg>
