<svg width="104" height="24" viewBox="0 0 104 24" fill="none" xmlns="http://www.w3.org/2000/svg">
<g clip-path="url(#clip0_2457_303)">
<path d="M102.541 6.42C102.422 5.94541 102.18 5.51057 101.839 5.15941C101.499 4.80824 101.071 4.55318 100.601 4.42C98.8806 4 92.0006 4 92.0006 4C92.0006 4 85.1206 4 83.4006 4.46C82.9298 4.59318 82.5025 4.84824 82.1619 5.19941C81.8213 5.55057 81.5794 5.98541 81.4606 6.46C81.1458 8.20556 80.9918 9.97631 81.0006 11.75C80.9894 13.537 81.1433 15.3213 81.4606 17.08C81.5915 17.5398 81.8389 17.9581 82.1787 18.2945C82.5186 18.6308 82.9394 18.8738 83.4006 19C85.1206 19.46 92.0006 19.46 92.0006 19.46C92.0006 19.46 98.8806 19.46 100.601 19C101.071 18.8668 101.499 18.6118 101.839 18.2606C102.18 17.9094 102.422 17.4746 102.541 17C102.853 15.2676 103.007 13.5103 103.001 11.75C103.012 9.96295 102.858 8.1787 102.541 6.42Z" stroke="#A3DB5E" stroke-width="2" stroke-linecap="round" stroke-linejoin="round"/>
<path d="M89.75 15.02L95.5 11.75L89.75 8.47998V15.02Z" stroke="#A3DB5E" stroke-width="2" stroke-linecap="round" stroke-linejoin="round"/>
</g>
<path d="M58 2H55C53.6739 2 52.4021 2.52678 51.4645 3.46447C50.5268 4.40215 50 5.67392 50 7V10H47V14H50V22H54V14H57L58 10H54V7C54 6.73478 54.1054 6.48043 54.2929 6.29289C54.4804 6.10536 54.7348 6 55 6H58V2Z" stroke="#A3DB5E" stroke-width="2" stroke-linecap="round" stroke-linejoin="round"/>
<path d="M17 2H7C4.23858 2 2 4.23858 2 7V17C2 19.7614 4.23858 22 7 22H17C19.7614 22 22 19.7614 22 17V7C22 4.23858 19.7614 2 17 2Z" stroke="#A3DB5E" stroke-width="2" stroke-linecap="round" stroke-linejoin="round"/>
<path d="M15.9997 11.3698C16.1231 12.2021 15.981 13.052 15.5935 13.7988C15.206 14.5456 14.5929 15.1512 13.8413 15.5295C13.0898 15.9077 12.2382 16.0394 11.4075 15.9057C10.5768 15.7721 9.80947 15.3799 9.21455 14.785C8.61962 14.1901 8.22744 13.4227 8.09377 12.592C7.96011 11.7614 8.09177 10.9097 8.47003 10.1582C8.84829 9.40667 9.45389 8.79355 10.2007 8.40605C10.9475 8.01856 11.7975 7.8764 12.6297 7.99981C13.4786 8.1257 14.2646 8.52128 14.8714 9.12812C15.4782 9.73496 15.8738 10.5209 15.9997 11.3698Z" stroke="#A3DB5E" stroke-width="2" stroke-linecap="round" stroke-linejoin="round"/>
<path d="M17.5 6.5H17.51" stroke="#A3DB5E" stroke-width="2" stroke-linecap="round" stroke-linejoin="round"/>
<defs>
<clipPath id="clip0_2457_303">
<rect width="24" height="24" fill="white" transform="translate(80)"/>
</clipPath>
</defs>
</svg>
