<svg width="132" height="23" viewBox="0 0 132 23" fill="none" xmlns="http://www.w3.org/2000/svg">
<g clip-path="url(#clip0_2457_136)">
<path d="M21.0969 8.41915C21.0392 8.24934 20.9331 8.10013 20.7916 7.98994C20.6501 7.87975 20.4795 7.81341 20.3007 7.7991L15.0716 7.38359L12.8087 2.37458C12.7367 2.21324 12.6195 2.07622 12.4712 1.98003C12.323 1.88385 12.1501 1.83262 11.9734 1.83252C11.7968 1.83242 11.6238 1.88347 11.4755 1.97949C11.3272 2.07551 11.2098 2.21241 11.1375 2.37366L8.87473 7.38359L3.64558 7.7991C3.46989 7.81302 3.30193 7.87726 3.16179 7.98413C3.02165 8.09101 2.91527 8.236 2.85537 8.40175C2.79548 8.5675 2.7846 8.747 2.82405 8.91877C2.8635 9.09054 2.9516 9.24731 3.07781 9.37032L6.94212 13.1374L5.57544 19.0554C5.53394 19.2345 5.54724 19.422 5.61361 19.5935C5.67999 19.765 5.79637 19.9125 5.94765 20.0171C6.09894 20.1216 6.27815 20.1782 6.46202 20.1796C6.6459 20.181 6.82595 20.1271 6.97881 20.0249L11.9731 16.6954L16.9675 20.0249C17.1237 20.1286 17.308 20.182 17.4955 20.1779C17.683 20.1738 17.8647 20.1124 18.0162 20.0019C18.1678 19.8914 18.2819 19.7372 18.3431 19.5599C18.4044 19.3827 18.4099 19.1909 18.3589 19.0105L16.6813 13.1402L20.8419 9.396C21.1143 9.15018 21.2143 8.76678 21.0969 8.41915Z" fill="#A3DB5E"/>
<path d="M48.1125 8.41915C48.0548 8.24934 47.9487 8.10013 47.8072 7.98994C47.6658 7.87975 47.4951 7.81341 47.3163 7.7991L42.0872 7.38359L39.8244 2.37458C39.7523 2.21324 39.6351 2.07622 39.4869 1.98003C39.3387 1.88385 39.1658 1.83262 38.9891 1.83252C38.8124 1.83242 38.6394 1.88347 38.4911 1.97949C38.3428 2.07551 38.2254 2.21241 38.1532 2.37366L35.8904 7.38359L30.6612 7.7991C30.4855 7.81302 30.3176 7.87726 30.1774 7.98413C30.0373 8.09101 29.9309 8.236 29.871 8.40175C29.8111 8.5675 29.8002 8.747 29.8397 8.91877C29.8791 9.09054 29.9672 9.24731 30.0934 9.37032L33.9577 13.1374L32.5911 19.0554C32.5496 19.2345 32.5629 19.422 32.6292 19.5935C32.6956 19.765 32.812 19.9125 32.9633 20.0171C33.1146 20.1216 33.2938 20.1782 33.4776 20.1796C33.6615 20.181 33.8416 20.1271 33.9944 20.0249L38.9888 16.6954L43.9831 20.0249C44.1393 20.1286 44.3236 20.182 44.5111 20.1779C44.6986 20.1738 44.8803 20.1124 45.0319 20.0019C45.1834 19.8914 45.2975 19.7372 45.3587 19.5599C45.42 19.3827 45.4255 19.1909 45.3746 19.0105L43.6969 13.1402L47.8575 9.396C48.1299 9.15018 48.2299 8.76678 48.1125 8.41915V8.41915Z" fill="#A3DB5E"/>
<path d="M75.1242 8.41915C75.0666 8.24934 74.9604 8.10013 74.819 7.98994C74.6775 7.87975 74.5068 7.81341 74.3281 7.7991L69.0989 7.38359L66.8361 2.37458C66.764 2.21324 66.6468 2.07622 66.4986 1.98003C66.3504 1.88385 66.1775 1.83262 66.0008 1.83252C65.8241 1.83242 65.6511 1.88347 65.5028 1.97949C65.3545 2.07551 65.2371 2.21241 65.1649 2.37366L62.9021 7.38359L57.6729 7.7991C57.4972 7.81302 57.3293 7.87726 57.1891 7.98413C57.049 8.09101 56.9426 8.236 56.8827 8.40175C56.8228 8.5675 56.8119 8.747 56.8514 8.91877C56.8908 9.09054 56.9789 9.24731 57.1052 9.37032L60.9695 13.1374L59.6028 19.0554C59.5613 19.2345 59.5746 19.422 59.641 19.5935C59.7073 19.765 59.8237 19.9125 59.975 20.0171C60.1263 20.1216 60.3055 20.1782 60.4894 20.1796C60.6732 20.181 60.8533 20.1271 61.0062 20.0249L66.0005 16.6954L70.9948 20.0249C71.1511 20.1286 71.3353 20.182 71.5228 20.1779C71.7103 20.1738 71.8921 20.1124 72.0436 20.0019C72.1951 19.8914 72.3092 19.7372 72.3705 19.5599C72.4317 19.3827 72.4372 19.1909 72.3863 19.0105L70.7087 13.1402L74.8692 9.396C75.1416 9.15018 75.2416 8.76678 75.1242 8.41915V8.41915Z" fill="#A3DB5E"/>
<path d="M102.138 8.41915C102.08 8.24934 101.974 8.10013 101.833 7.98994C101.691 7.87975 101.52 7.81341 101.342 7.7991L96.1126 7.38359L93.8498 2.37458C93.7777 2.21324 93.6605 2.07622 93.5123 1.98003C93.364 1.88385 93.1912 1.83262 93.0145 1.83252C92.8378 1.83242 92.6648 1.88347 92.5165 1.97949C92.3682 2.07551 92.2508 2.21241 92.1786 2.37366L89.9157 7.38359L84.6866 7.7991C84.5109 7.81302 84.3429 7.87726 84.2028 7.98413C84.0627 8.09101 83.9563 8.236 83.8964 8.40175C83.8365 8.5675 83.8256 8.747 83.8651 8.91877C83.9045 9.09054 83.9926 9.24731 84.1188 9.37032L87.9831 13.1374L86.6165 19.0554C86.575 19.2345 86.5883 19.422 86.6546 19.5935C86.721 19.765 86.8374 19.9125 86.9887 20.0171C87.14 20.1216 87.3192 20.1782 87.503 20.1796C87.6869 20.181 87.867 20.1271 88.0198 20.0249L93.0142 16.6954L98.0085 20.0249C98.1647 20.1286 98.349 20.182 98.5365 20.1779C98.724 20.1738 98.9057 20.1124 99.0573 20.0019C99.2088 19.8914 99.3229 19.7372 99.3841 19.5599C99.4454 19.3827 99.4509 19.1909 99.3999 19.0105L97.7223 13.1402L101.883 9.396C102.155 9.15018 102.255 8.76678 102.138 8.41915V8.41915Z" fill="#A3DB5E"/>
<path d="M115 13.1374L113.633 19.0554C113.591 19.2346 113.603 19.4224 113.669 19.5943C113.736 19.7662 113.852 19.9141 114.003 20.0188C114.155 20.1235 114.334 20.1801 114.518 20.1812C114.703 20.1823 114.883 20.1278 115.035 20.0249L120.03 16.6954L125.024 20.0249C125.18 20.1287 125.365 20.1821 125.552 20.178C125.74 20.1739 125.921 20.1124 126.073 20.0019C126.224 19.8915 126.338 19.7372 126.4 19.56C126.461 19.3827 126.467 19.191 126.416 19.0105L124.738 13.1402L128.899 9.39603C129.032 9.27605 129.127 9.11963 129.172 8.94614C129.218 8.77264 129.211 8.58967 129.153 8.41986C129.096 8.25004 128.99 8.10083 128.848 7.99067C128.707 7.88051 128.536 7.81423 128.357 7.80004L123.128 7.38362L120.865 2.3746C120.793 2.21331 120.676 2.07635 120.528 1.98025C120.379 1.88415 120.206 1.83301 120.03 1.83301C119.853 1.83301 119.68 1.88415 119.532 1.98025C119.384 2.07635 119.266 2.21331 119.194 2.3746L116.931 7.38362L111.702 7.79913C111.527 7.81305 111.359 7.87729 111.218 7.98416C111.078 8.09104 110.972 8.23602 110.912 8.40178C110.852 8.56753 110.841 8.74703 110.881 8.9188C110.92 9.09057 111.008 9.24734 111.134 9.37035L115 13.1374ZM117.617 9.16947C117.78 9.15658 117.938 9.09987 118.072 9.0053C118.206 8.91073 118.312 8.78179 118.38 8.63198L120.03 4.98047L121.68 8.63198C121.747 8.78179 121.854 8.91073 121.988 9.0053C122.122 9.09987 122.279 9.15658 122.443 9.16947L126.086 9.4584L123.086 12.1587C122.826 12.3936 122.722 12.7549 122.817 13.0925L123.967 17.1146L120.54 14.8297C120.389 14.7288 120.212 14.6749 120.031 14.6749C119.85 14.6749 119.673 14.7288 119.523 14.8297L115.942 17.2173L116.905 13.0475C116.94 12.8942 116.935 12.7343 116.891 12.5833C116.847 12.4323 116.764 12.2953 116.652 12.1853L113.865 9.46849L117.617 9.16947Z" fill="#A3DB5E"/>
</g>
<defs>
<clipPath id="clip0_2457_136">
<rect width="130.068" height="22.0136" fill="white" transform="translate(0.966797)"/>
</clipPath>
</defs>
</svg>
