<?xml version="1.0" encoding="UTF-8"?>
<!DOCTYPE svg PUBLIC "-//W3C//DTD SVG 1.1//EN" "http://www.w3.org/Graphics/SVG/1.1/DTD/svg11.dtd">
<!-- Creator: CorelDRAW 2020 (64 Bit) -->
<svg xmlns="http://www.w3.org/2000/svg" xml:space="preserve" width="210mm" height="297mm" version="1.1" style="shape-rendering:geometricPrecision; text-rendering:geometricPrecision; image-rendering:optimizeQuality; fill-rule:evenodd; clip-rule:evenodd"
viewBox="0 0 21000 29700"
 xmlns:xlink="http://www.w3.org/1999/xlink"
 xmlns:xodm="http://www.corel.com/coreldraw/odm/2003">
 <defs>
  <style type="text/css">
   <![CDATA[
    .str0 {stroke:#29441B;stroke-width:105.83;stroke-miterlimit:22.9256}
    .str2 {stroke:#203A15;stroke-width:52.92;stroke-miterlimit:22.9256}
    .str1 {stroke:#5EB135;stroke-width:7.62;stroke-miterlimit:22.9256}
    .fil9 {fill:none}
    .fil4 {fill:none;fill-rule:nonzero}
    .fil7 {fill:#203A15}
    .fil8 {fill:#203A15;fill-rule:nonzero}
    .fil6 {fill:#5EB135;fill-rule:nonzero}
    .fil1 {fill:url(#id1)}
    .fil3 {fill:url(#id2)}
    .fil5 {fill:url(#id3)}
    .fil2 {fill:url(#id4)}
    .fil0 {fill:url(#id5)}
   ]]>
  </style>
   <clipPath id="id0">
    <path d="M10492.87 5469.52c5180.99,0 9381.01,4200.02 9381.01,9381.01 0,5180.99 -4200.02,9381.01 -9381.01,9381.01 -5180.99,0 -9381.01,-4200.02 -9381.01,-9381.01 0,-5180.99 4200.02,-9381.01 9381.01,-9381.01z"/>
   </clipPath>
  <linearGradient id="id1" gradientUnits="userSpaceOnUse" x1="2357.65" y1="12062.71" x2="18624.74" y2="12062.71">
   <stop offset="0" style="stop-opacity:1; stop-color:#5BAF33"/>
   <stop offset="1" style="stop-opacity:1; stop-color:#A3DB5E"/>
  </linearGradient>
  <linearGradient id="id2" gradientUnits="userSpaceOnUse" xlink:href="#id1" x1="2638.53" y1="12194.98" x2="18343.88" y2="12194.98">
  </linearGradient>
  <linearGradient id="id3" gradientUnits="userSpaceOnUse" xlink:href="#id1" x1="3054.93" y1="20940.88" x2="17864.54" y2="20940.88">
  </linearGradient>
  <linearGradient id="id4" gradientUnits="userSpaceOnUse" xlink:href="#id1" x1="2711.7" y1="21065.47" x2="18207.78" y2="21065.47">
  </linearGradient>
  <radialGradient id="id5" gradientUnits="userSpaceOnUse" gradientTransform="matrix(1 -0 -0 0.841105 0 2360)" cx="10492.87" cy="14850.53" r="6528.43" fx="10492.87" fy="14850.53">
   <stop offset="0" style="stop-opacity:1; stop-color:#486934"/>
   <stop offset="1" style="stop-opacity:1; stop-color:#1E3813"/>
  </radialGradient>
 </defs>
 <g id="Camada_x0020_1">
  <metadata id="CorelCorpID_0Corel-Layer"/>
  <g>
  </g>
  <g style="clip-path:url(#id0)">
   <g>
    <g id="_2947002604624">
     <polygon class="fil0" points="-1514.3,4751.23 22500.04,4751.23 22500.04,24949.83 -1514.3,24949.83 "/>
     <path class="fil1" d="M3594.48 17519.32c-828.56,0 -1500.33,0 -1500.33,0 -1185.06,-3628.66 131.76,-7518.94 3218.82,-9764.19 3087.08,-2245.26 7269.39,-2245.26 10356.45,0 3087.08,2245.25 4403.9,6135.53 3218.85,9764.19 -781.1,0 -1431.39,0 -1431.39,0 -4774.72,-986.02 -9088.59,-986.02 -13862.4,0zm336.89 -279.64c-788.08,0 -1427.04,0 -1427.04,0 -1127.16,-3451.37 125.32,-7151.62 3061.6,-9287.21 2936.27,-2135.58 6914.28,-2135.58 9850.55,0 2936.28,2135.59 4188.76,5835.84 3061.6,9287.21 -742.93,0 -1361.45,0 -1361.45,0 -4541.5,-937.85 -8644.65,-937.85 -13185.26,0l0 0z"/>
     <path class="fil2" d="M17467.66 19011.47c280.9,0 740.32,0 740.32,0 -1555.2,2763.47 -4567.35,4611.92 -7738.38,4611.92 -3171,0 -6202.65,-1848.45 -7757.81,-4611.92 371.56,0 893.47,0 893.47,0 4723.32,-986.35 9139.08,-986.35 13862.4,0zm-653.71 180.61c254.71,0 671.25,0 671.25,0 -1410.14,2505.67 -4141.29,4181.71 -7016.52,4181.71 -2875.2,0 -5624.01,-1676.04 -7034.12,-4181.71 336.91,0 810.12,0 810.12,0 4282.72,-894.33 8286.55,-894.33 12569.27,0l0 0z"/>
     <path class="fil3" d="M3594.48 17518.66c-801.95,0 -1202.92,0 -1202.92,0 -1146.96,-3512.02 100.02,-7362.99 3087.88,-9536.08 2987.83,-2173.08 7035.7,-2173.08 10023.53,0 2987.86,2173.09 4234.85,6024.06 3087.88,9536.08 -755.98,0 -1133.97,0 -1133.97,0 -4621.24,-954.32 -9242.04,-954.32 -13862.4,0l0 0z"/>
     <path class="fil4 str0" d="M3594.48 17518.66c-801.95,0 -1202.92,0 -1202.92,0 -1146.96,-3512.02 100.02,-7362.99 3087.88,-9536.08 2987.83,-2173.08 7035.7,-2173.08 10023.53,0 2987.86,2173.09 4234.85,6024.06 3087.88,9536.08 -755.98,0 -1133.97,0 -1133.97,0 -4621.24,-954.32 -9242.04,-954.32 -13862.4,0z"/>
     <path class="fil5" d="M17456.88 19020.3c271.89,0 407.83,0 407.83,0 -1505.21,2674.64 -4335.76,4329.69 -7404.85,4329.69 -3069.08,0 -5899.61,-1655.05 -7404.82,-4329.69 359.62,0 539.44,0 539.44,0 4571.49,-954.61 9290.91,-954.61 13862.4,0l0 0z"/>
     <path class="fil4 str0" d="M17456.88 19020.3c271.89,0 407.83,0 407.83,0 -1505.21,2674.64 -4335.76,4329.69 -7404.85,4329.69 -3069.08,0 -5899.61,-1655.05 -7404.82,-4329.69 359.62,0 539.44,0 539.44,0 4571.49,-954.61 9290.91,-954.61 13862.4,0z"/>
     <line class="fil4 str0" x1="3594.48" y1="19020.3" x2="1703.92" y2= "19020.3" />
     <line class="fil4 str0" x1="3594.48" y1="17518.66" x2="1159.77" y2= "17518.66" />
     <line class="fil4 str0" x1="17456.88" y1="19020.3" x2="19347.46" y2= "19020.3" />
     <line class="fil4 str0" x1="17456.88" y1="17518.66" x2="18977.78" y2= "17518.66" />
     <path class="fil6" d="M6248.96 18407.73l-18.21 -164.7 90.14 -9.95 116.46 -1009.6 180.32 -19.94 334.29 959.72 90.16 -9.95 18.21 164.65 -360.6 39.91 -18.22 -164.7 90.16 -9.97 -52.38 -159.18 -201.77 22.32 -16.31 166.78 90.14 -9.95 18.23 164.65 -360.62 39.91zm314.93 -865.46l-31.16 335.69 135.22 -14.93 -104.06 -320.76zm675.25 756.08l-96.04 -1152.35 180.77 -15.07 422.87 727.59 -63.16 -757.59 180.78 -15.04 96.04 1152.34 -180.77 15.08 -422.76 -726.75 63.04 756.71 -180.77 15.08zm901.05 -72.37l-82.93 -1153.37 180.94 -13 82.93 1153.37 -180.94 13zm360.63 -27.13l-51.72 -1155.19 181.22 -8.09 300.31 664.86 239.66 -689.05 181.22 -8.11 51.74 1155.19 -181.24 8.13 -30.25 -676.13 -239.73 688.22 -300.27 -664.03 30.28 676.09 -181.22 8.11zm1083.81 -44.62l249.27 -1161.33 180.76 -3.46 293.61 1150.91 -180.76 3.45 -84.36 -328.07 -206.05 3.93 -71.4 331.11 -181.07 3.46zm347.06 -776.84l-59.81 275.9 130.16 -2.49 -70.35 -273.41zm556.73 763.51l7.39 -1156.33 181.4 1.17 -6.32 990.64 450.09 2.89 -1.07 165.66 -631.49 -4.03zm811.97 8.2l5.3 -165.6 90.36 2.9 26.39 -824.57 -90.34 -2.89 5.3 -165.6 362.32 11.59 -5.31 165.6 -90.66 -2.91 -26.39 824.58 271.97 8.7 2.63 -82.51 181.32 5.81 -7.94 248.09 -724.95 -23.19zm904.9 32.61l68.23 -1154.33 181.09 10.69 -68.23 1154.33 -181.09 -10.69zm361.05 19.7l81.24 -1153.52 629.97 44.36 -11.65 165.27 -449 -31.59 -23.16 328.81 268.97 18.96 -11.64 165.26 -268.97 -18.95 -34.8 494.14 -180.96 -12.74zm811.61 57.05l112.45 -1150.89 628.51 61.42 -16.11 164.9 -447.98 -43.79 -32.05 328.11 268.36 26.23 -16.11 164.89 -268.36 -26.23 -32.06 328.1 447.97 43.79 -16.11 164.86 -628.51 -61.39z"/>
     <path class="fil4 str1" d="M6248.96 18407.73l-18.21 -164.7 90.14 -9.95 116.46 -1009.6 180.32 -19.94 334.29 959.72 90.16 -9.95 18.21 164.65 -360.6 39.91 -18.22 -164.7 90.16 -9.97 -52.38 -159.18 -201.77 22.32 -16.31 166.78 90.14 -9.95 18.23 164.65 -360.62 39.91zm314.93 -865.46l-31.16 335.69 135.22 -14.93 -104.06 -320.76zm675.25 756.08l-96.04 -1152.35 180.77 -15.07 422.87 727.59 -63.16 -757.59 180.78 -15.04 96.04 1152.34 -180.77 15.08 -422.76 -726.75 63.04 756.71 -180.77 15.08zm901.05 -72.37l-82.93 -1153.37 180.94 -13 82.93 1153.37 -180.94 13zm360.63 -27.13l-51.72 -1155.19 181.22 -8.09 300.31 664.86 239.66 -689.05 181.22 -8.11 51.74 1155.19 -181.24 8.13 -30.25 -676.13 -239.73 688.22 -300.27 -664.03 30.28 676.09 -181.22 8.11zm1083.81 -44.62l249.27 -1161.33 180.76 -3.46 293.61 1150.91 -180.76 3.45 -84.36 -328.07 -206.05 3.93 -71.4 331.11 -181.07 3.46zm347.06 -776.84l-59.81 275.9 130.16 -2.49 -70.35 -273.41zm556.73 763.51l7.39 -1156.33 181.4 1.17 -6.32 990.64 450.09 2.89 -1.07 165.66 -631.49 -4.03zm811.97 8.2l5.3 -165.6 90.36 2.9 26.39 -824.57 -90.34 -2.89 5.3 -165.6 362.32 11.59 -5.31 165.6 -90.66 -2.91 -26.39 824.58 271.97 8.7 2.63 -82.51 181.32 5.81 -7.94 248.09 -724.95 -23.19zm904.9 32.61l68.23 -1154.33 181.09 10.69 -68.23 1154.33 -181.09 -10.69zm361.05 19.7l81.24 -1153.52 629.97 44.36 -11.65 165.27 -449 -31.59 -23.16 328.81 268.97 18.96 -11.64 165.26 -268.97 -18.95 -34.8 494.14 -180.96 -12.74zm811.61 57.05l112.45 -1150.89 628.51 61.42 -16.11 164.9 -447.98 -43.79 -32.05 328.11 268.36 26.23 -16.12 164.89 -268.35 -26.23 -32.06 328.1 447.97 43.79 -16.11 164.86 -628.51 -61.39z"/>
     <path class="fil7" d="M11623.99 21340.41l-6.29 23.12c-13.23,48.66 -3.76,109.43 13.48,153.5l14.01 30c10.98,18.92 29.13,44.87 46.11,59.86 39.23,34.62 58.62,45.96 115.23,61.38 27.49,7.46 59.02,11.84 83.74,13.5 53.87,3.64 99.17,1.67 152.49,-2.67 35.68,-2.91 74.48,-7.8 109.21,-10.15 33.14,-2.26 60.4,-4.45 93.78,-4.8l38.42 0.71c18.01,0.45 43.3,3.33 62.09,6.22 94.78,14.59 135.9,24.59 223.28,76.92 38.44,22.99 75.56,50.45 109.86,76.78l77.63 60.29c46.29,34.86 91.67,71.75 151.28,87.97 49.16,13.36 75.13,18.69 124.99,13.83 15.74,-1.5 28.19,-4.39 42.45,-8.36 38.44,-10.73 80.48,-36.7 105.33,-67.15 7.43,-9.09 18.43,-28.64 23.95,-40.67 39.94,-86.85 36.62,-172.92 24.77,-257.29 -1.01,-7.3 -1.69,-13.64 -2.94,-20.91 -1.23,-7.15 -2.1,-13.5 -3.55,-20.54 -1.51,-7.32 -2.06,-13.26 -3.57,-20.56 -13.72,-67.28 -12.38,-65 -32.59,-129.25 -1.1,-3.47 -2.08,-5.79 -3.15,-9.47 -2.09,-7.23 -3.77,-12.27 -6.06,-19.13 -2.25,-6.65 -3.81,-12.47 -6.04,-19.12 -2.24,-6.7 -4.04,-12.12 -6.32,-18.98 -4.42,-13.17 -8.34,-24.89 -12.69,-37.93 -15.36,-45.98 -30.26,-85.39 -48.21,-130.53l-23.6 -55.3c-2.72,-6.2 -5.42,-11.64 -8.18,-17.9l-21.8 -44.01c-10.39,-22.6 -38.93,-72.87 -52.87,-94l-10.78 -16.43c-3.97,-5.26 -7.6,-10.77 -11.02,-16.27l-48.46 -63.64c-35.46,-40.26 -55.53,-65.26 -102.28,-100.64 -81.86,-61.97 -175.9,-93.91 -279.85,-104.45 -35.28,-3.55 -55.11,-2.52 -88.64,-2.34 -68.56,0.33 -170.09,23.49 -232.12,48.37 -6.11,2.45 -11.44,4.36 -17.49,7.12l-43.21 19.59c-3.86,2.23 -4.47,2.59 -8.77,4.38 -16.08,6.66 -62.29,35.77 -79.88,48.83l-60.38 47.01c-4.84,4.01 -9.75,7.69 -14.73,11.94 -53.69,45.88 -93.1,80.7 -141.38,131.54l-26.58 28.93c-32.52,36.38 -73.46,86.77 -100.73,127.18 -32.33,47.93 -50.86,79.03 -77.98,131.06 -10.82,20.73 -20.86,28.95 -29.96,62.46z"/>
     <path class="fil7" d="M12873.8 19986.18c-19.62,72.21 -29.83,144.93 -17.1,218.26 13.55,78.02 40.83,146.05 101.08,199.88 57.79,51.65 108.29,65.63 182.32,56.03 7.25,-0.94 12.31,-2.45 19.61,-3.46l39.45 -10.01c3.26,-1.04 6.18,-1.67 9.6,-2.98l45.17 -17.93c3.81,-1.58 5.02,-2.76 8.81,-4.34l25.82 -14.11c5.78,-3.31 10.52,-5.92 16.26,-9.25 27.09,-15.7 70.13,-53.02 91.63,-74.96 28.66,-29.23 41.84,-49.18 65.5,-81.09 20.3,-27.44 51.94,-90.4 63.8,-121.76 14.69,-38.84 28.84,-83.9 35.46,-125.23 10.17,-63.58 18.28,-108.37 5.13,-173.42 -8.13,-40.17 -20.01,-78.13 -39.91,-113.72 -2.83,-5.08 -5.04,-7.32 -7.91,-11.9 -31.01,-49.68 -79.34,-94.33 -137.35,-110.19l-14.38 -3.91c-18.56,-4.91 -23.4,-5.21 -53.42,-4.8 -24.99,0.31 -59.03,5.24 -82.56,11.82 -70.49,19.81 -131.8,57.26 -184.51,108.22 -2.31,2.25 -4.71,4.53 -7.3,6.99 -64.1,61.25 -116.81,150.87 -147.91,233.14 -6.14,16.28 -12.25,30.25 -17.29,48.72z"/>
     <path class="fil7" d="M12125.28 19645.52c-5.74,21.17 -12.74,56.35 -16,79.03 -14.47,100.24 -7.43,198.18 23.71,291.42 5.63,16.85 22.45,57.94 32.13,75.03 3.57,6.29 6.62,11.49 10.22,17.76 16.45,28.77 39.11,57.63 61.99,81.61 26.5,27.75 72.07,66.87 111.86,77.67 32.96,8.97 49.2,11 81.25,9.21 20.6,-1.12 41.02,-5.7 59.3,-11.23 5.15,-1.55 8.53,-2.93 13.59,-4.93 69.17,-27.55 123.12,-79.46 162.97,-144.09 43.63,-70.7 63.68,-137.94 75.74,-221.73 2.17,-15.14 3.37,-28.12 4.47,-42.6 1.03,-13.55 2.32,-28.38 2.15,-42.34 -0.33,-28.05 -0.38,-52.69 -3.49,-79.1 -3.39,-28.69 -4.42,-37.93 -10.36,-64.94 -0.69,-3.13 -1.12,-5.65 -1.84,-9.22 -4.02,-20.18 -8.35,-33.44 -14.62,-52.2 -2.08,-6.21 -3.49,-11.14 -5.79,-17.23l-37.72 -79.05c-22.11,-33.51 -50.42,-71.8 -82.03,-96.8 -68.4,-54.09 -131.19,-83.63 -226.06,-54.82 -25.49,7.74 -41.73,16.68 -64.24,29.48 -29.3,16.66 -67.74,50.6 -87.9,76.07 -33.09,41.8 -44.51,61.08 -66.58,115.12l-22.75 67.88z"/>
     <path class="fil7" d="M13198.26 20834.55c-30.13,110.82 -12.64,229.54 56.68,306.43 21.76,24.17 60.7,50.71 92.06,59.24 57.08,15.55 132.05,12.51 187.96,-5.31 14.05,-4.47 26.12,-8.46 39.31,-13.85l28.6 -12.84c21.46,-10.52 27.84,-16.15 44.87,-25.64 3.83,-2.15 4.6,-2.66 8.21,-5.4 3.49,-2.6 5.62,-3.46 8.92,-5.94 62.25,-47.11 89.42,-72.3 137.37,-136.77 51.62,-69.39 73.33,-129.04 98.01,-219.8 14.33,-52.68 7.04,-139.36 -13.63,-191.43l-13.65 -31.23c-5.16,-9.14 -8.55,-16.22 -14.69,-24.42 -19.24,-25.75 -33.44,-44.69 -64.15,-63.91 -50.91,-31.84 -91.63,-35.26 -150.84,-32.04 -51.96,2.81 -119.07,22.47 -164.97,49.05 -29.17,16.85 -41.22,22.36 -70.59,45.28l-48.03 41.71 -37.55 40.23c-2.76,3.25 -4.8,5.07 -7.49,8.48 -19.42,24.57 -37.65,48.37 -53.15,75.75 -26.04,46.07 -23.93,47.27 -44.29,91.23 -7.08,15.28 -13.77,32.09 -18.96,51.18z"/>
     <path class="fil7" d="M11452.28 20170.49c-14.96,55.01 -18.56,73.11 -22.11,129.7 -1.97,31.26 0.02,64.74 3.38,93.6 6.29,53.98 25.75,128.81 49.06,173.19 2.05,3.92 2.22,5.69 4.52,9.7l42.12 70.38c12.6,17.48 24.57,33.07 39.98,49 59.37,61.37 141.6,122.31 232.39,107.98 8.6,-1.36 15.26,-2.1 23.19,-4.34 33.47,-9.6 52.29,-17.33 81.33,-37.34 50.63,-34.92 78.29,-78.75 102.46,-134.92 7.82,-18.17 14.37,-41 19.9,-54.96 4.12,-10.37 3.88,-18.68 6.84,-29.28 11.85,-42.37 16.11,-117.01 11.59,-160.65l-5.55 -48.19c-1.02,-8.28 -2.76,-15.39 -4.33,-23.17 -9.58,-47.71 -29.24,-109.71 -52.38,-149.73 -4.08,-7.08 -8.38,-17.64 -15.56,-29.1 -2.48,-3.94 -4.12,-5.24 -6.58,-9.6 -29.52,-52.07 -91.45,-117.97 -145.13,-147.95 -8.43,-4.69 -15.03,-7.22 -24.8,-11.47 -46.58,-20.29 -110.27,-20.8 -155.39,-7.99 -30.13,8.56 -55.8,21.27 -79.84,39.95 -23.86,18.56 -43.77,41.81 -61.04,72.74 -16.76,30.02 -33.31,62.94 -44.05,102.45z"/>
     <path class="fil7" d="M8138.42 19993.28c104.69,390.74 242.15,1468.74 431.9,1676.68 293.05,321.2 930.44,58.3 957.99,-512.33 31.03,-642.46 -723.25,-1310.92 -1195.47,-1594.43 -408.39,-245.17 -271.94,140.75 -194.42,430.08z"/>
     <path class="fil7" d="M7643.91 19634.8c-218.59,173.53 -439.04,947.27 -481.52,1204.26 -76.9,465.15 -3.77,1051.27 516.85,1212.28 382.08,118.13 774.61,-132.37 701.24,-530.65 -47.08,-255.61 -311.23,-935.77 -400.21,-1233.54 -67.81,-226.91 -148.57,-801.48 -336.36,-652.35z"/>
     <path class="fil8 str2" d="M4632.42 15539.24m3064.88 -5535.22l-235.76 563.78c-389.51,891.78 -666.28,1558.07 -850.79,1978.33l2111.58 0c-174.24,-461.28 -338.25,-902.05 -512.51,-1322.31 -164,-420.25 -338.27,-830.27 -512.52,-1219.8zm1291.55 3228.89l-2706.1 0c-266.52,584.26 -451.01,1035.29 -553.53,1363.29 -112.74,328.01 -164,615.04 -164,850.79l0 82.01c-82.01,10.24 -133.25,20.49 -164.01,20.49 -40.99,0 -71.74,0 -102.49,0 -215.27,0 -379.27,-41 -492.03,-133.26 -112.76,-92.25 -174.27,-215.26 -174.27,-389.5 0,-164.01 328.03,-902.04 973.79,-2203.84 645.79,-1301.81 1209.56,-2511.35 1691.32,-3628.64 -51.26,-82.01 -112.76,-153.75 -174.24,-225.52 -61.51,-71.75 -123.01,-143.49 -194.78,-215.24 123.01,-153.76 235.77,-266.52 338.27,-338.27 102.5,-71.75 205.02,-102.5 307.52,-102.5 143.49,0 287.01,92.26 420.26,276.75 133.25,184.51 287.01,502.27 471.52,943.03 153.76,379.27 369.02,922.55 645.78,1609.31 932.78,2326.85 1578.56,3669.66 1937.32,4018.17 -123.01,143.51 -246.02,235.75 -348.52,297.25 -112.74,61.5 -215.26,92.26 -338.26,92.26 -338.25,0 -717.52,-574.02 -1148.04,-1722.06 -92.25,-256.26 -164,-451.03 -225.51,-594.52z"/>
     <path class="fil8 str2" d="M12290.87 15529m1209.53 -830.28c143.52,10.25 276.77,20.49 420.28,30.75 133.25,10.25 276.75,10.25 410.02,10.25 481.76,0 861.03,-20.51 1137.79,-61.51 276.75,-51.25 502.27,-123 686.76,-215.26 71.77,112.76 112.76,225.51 143.52,328.03 40.99,102.5 51.25,204.99 51.25,317.76 0,164 -61.5,266.5 -174.26,338.25 -112.75,61.5 -338.27,92.25 -656.03,92.25 -112.74,0 -328,0 -645.77,-20.49 -317.76,-10.26 -574.01,-10.26 -779.03,-10.26 -276.77,0 -563.77,10.26 -850.78,20.51 -287.01,10.24 -430.53,20.5 -440.77,20.5 -112.76,0 -194.75,-30.75 -235.75,-82.01 -51.26,-51.26 -71.77,-143.51 -71.77,-276.76 0,-71.75 10.27,-246.01 20.51,-522.76 61.5,-1055.8 92.26,-2060.34 92.26,-3013.62 0,-891.78 -20.51,-1578.56 -71.75,-2060.32 -51.26,-471.52 -133.27,-820.04 -246.01,-1025.05 153.75,-82.01 297.25,-153.76 440.76,-194.76 133.25,-40.99 266.5,-61.5 399.75,-61.5 184.51,0 307.52,51.26 379.27,143.5 71.76,92.25 102.52,287.02 102.52,584.28 0,92.25 -10.27,317.76 -20.51,697.02 -61.5,1424.8 -92.26,2777.85 -92.26,4048.92l0 912.28z"/>
    </g>
   </g>
  </g>
  <path class="fil9" d="M10492.87 5469.52c5180.99,0 9381.01,4200.02 9381.01,9381.01 0,5180.99 -4200.02,9381.01 -9381.01,9381.01 -5180.99,0 -9381.01,-4200.02 -9381.01,-9381.01 0,-5180.99 4200.02,-9381.01 9381.01,-9381.01z"/>
 </g>
</svg>
